<?xml version="1.0" standalone="no"?>
<!DOCTYPE svg PUBLIC "-//W3C//DTD SVG 20010904//EN"
 "http://www.w3.org/TR/2001/REC-SVG-20010904/DTD/svg10.dtd">
<svg version="1.0" xmlns="http://www.w3.org/2000/svg"
 width="1000.000000pt" height="1000.000000pt" viewBox="0 0 1000.000000 1000.000000"
 preserveAspectRatio="xMidYMid meet">
<metadata>
Created by potrace 1.14, written by Peter Selinger 2001-2017
</metadata>
<g transform="translate(0.000000,1000.000000) scale(0.100000,-0.100000)"
fill="#000000" stroke="none">
<path d="M4945 8924 c-90 -118 -299 -316 -400 -380 -16 -10 -32 -21 -35 -24
-31 -37 -371 -222 -450 -245 -14 -4 -29 -11 -35 -15 -9 -7 -235 -86 -274 -96
-9 -2 -52 -13 -96 -25 -76 -20 -276 -63 -340 -73 -16 -2 -30 -5 -30 -6 0 -1
-16 -3 -35 -4 -37 -4 -128 -14 -170 -21 -82 -12 -370 -32 -545 -36 -49 -1
-406 11 -425 15 -14 2 -56 8 -95 12 -97 10 -125 13 -161 20 -28 5 -32 3 -42
-25 -6 -17 -9 -31 -6 -31 3 0 -1 -10 -7 -22 -11 -20 -18 -45 -34 -111 -2 -10
-7 -27 -10 -37 -3 -10 -7 -27 -9 -37 -2 -10 -9 -38 -16 -63 -13 -47 -17 -66
-25 -115 -3 -16 -8 -37 -10 -45 -5 -17 -13 -60 -21 -110 -3 -19 -7 -42 -9 -50
-2 -8 -7 -37 -11 -65 -3 -27 -8 -59 -10 -70 -3 -11 -7 -40 -9 -65 -3 -25 -7
-63 -10 -85 -7 -52 -14 -132 -20 -225 -7 -95 -7 -790 0 -890 9 -138 17 -237
29 -360 6 -53 16 -127 27 -205 21 -142 30 -193 35 -219 3 -11 8 -37 11 -56 3
-19 18 -93 35 -165 16 -71 31 -137 33 -145 1 -8 8 -35 15 -60 7 -25 14 -52 15
-60 2 -8 4 -15 5 -15 1 0 3 -7 5 -15 14 -69 137 -445 162 -492 7 -16 11 -28 8
-28 -3 0 4 -17 15 -37 11 -21 20 -42 20 -47 0 -16 133 -309 198 -436 80 -156
111 -212 176 -320 29 -47 58 -96 66 -109 33 -55 186 -281 238 -351 54 -73 201
-260 212 -270 3 -3 30 -34 60 -70 30 -36 60 -70 65 -76 6 -6 42 -46 80 -89 95
-107 332 -343 435 -434 47 -41 90 -80 95 -86 10 -11 239 -194 291 -232 142
-106 372 -262 439 -299 44 -24 70 -39 75 -45 11 -12 201 -113 325 -174 184
-89 223 -105 243 -98 77 25 438 205 509 253 24 17 45 30 47 30 4 0 112 64 136
80 8 6 59 40 114 76 89 59 364 259 376 274 3 3 39 33 80 66 41 32 80 64 85 70
6 5 48 44 95 85 201 177 476 467 677 715 100 122 206 262 222 292 6 11 17 26
24 34 22 23 181 268 254 393 75 127 184 337 245 470 20 44 50 110 67 147 17
37 31 69 31 72 0 3 5 17 12 33 6 15 12 30 13 33 1 3 7 19 14 35 23 59 60 161
81 225 12 36 25 74 30 85 15 35 95 323 115 415 2 8 11 47 20 85 9 39 18 79 21
90 10 49 14 72 19 100 3 17 7 39 9 50 2 11 7 40 11 65 4 25 9 52 10 60 8 48
16 99 20 130 2 19 8 71 14 115 12 95 21 180 29 290 9 120 8 1039 -1 1125 -4
41 -10 93 -12 115 -9 89 -25 207 -41 295 -2 14 -7 41 -10 60 -3 19 -12 62 -19
95 -8 33 -16 71 -18 85 -7 40 -65 259 -89 332 l-21 68 -46 -6 c-25 -3 -57 -7
-71 -9 -14 -3 -47 -7 -75 -10 -27 -3 -68 -8 -90 -10 -48 -6 -299 -16 -370 -15
-109 1 -306 9 -376 14 -153 13 -205 17 -239 21 -70 9 -135 17 -155 21 -11 2
-40 7 -65 10 -25 3 -61 9 -80 14 -19 5 -53 12 -75 15 -22 3 -47 8 -55 11 -8 3
-26 8 -40 10 -84 16 -356 97 -417 124 -13 5 -35 15 -50 21 -69 29 -94 40 -178
80 -104 50 -238 127 -243 140 -2 5 -8 9 -14 9 -43 0 -358 276 -451 394 -18 23
-42 51 -54 64 -13 13 -23 27 -23 32 0 25 -30 3 -75 -56z"/>
</g>
</svg>
